HIERARCHY
ROOT mixamorig:Hips
{
	OFFSET 0.000000 85.230415 0.000000
	CHANNELS 6 Xposition Yposition Zposition Zrotation Yrotation Xrotation 
	JOINT mixamorig:Spine
	{
		OFFSET -0.000014 7.868602 1.166200
		CHANNELS 3 Zrotation Yrotation Xrotation
		JOINT mixamorig:Spine1
		{
			OFFSET 0.000000 8.307605 0.241180
			CHANNELS 3 Zrotation Yrotation Xrotation
			JOINT mixamorig:Spine2
			{
				OFFSET 0.000000 7.470000 -0.455969
				CHANNELS 3 Zrotation Yrotation Xrotation
				JOINT mixamorig:Neck
				{
					OFFSET 0.000000 21.623915 -3.130763
					CHANNELS 3 Zrotation Yrotation Xrotation
					JOINT mixamorig:Head
					{
						OFFSET -0.000000 8.979097 1.007916
						CHANNELS 3 Zrotation Yrotation Xrotation
						JOINT mixamorig:HeadTop_End
						{
							OFFSET 0.000000 36.978806 0.701265
							CHANNELS 3 Zrotation Yrotation Xrotation
							End Site
							{
								OFFSET 0.000000 0.000000 0.000000
							}
						}
						JOINT mixamorig:HairB
						{
							OFFSET -6.414200 28.771164 21.708258
							CHANNELS 3 Zrotation Yrotation Xrotation
							End Site
							{
								OFFSET 0.000000 0.000000 0.000000
							}
						}
						JOINT mixamorig:HairA
						{
							OFFSET -11.484100 27.496475 17.498951
							CHANNELS 3 Zrotation Yrotation Xrotation
							End Site
							{
								OFFSET 0.000000 0.000000 0.000000
							}
						}
						JOINT mixamorig:Bow_Left
						{
							OFFSET -6.807600 33.586777 20.752766
							CHANNELS 3 Zrotation Yrotation Xrotation
							End Site
							{
								OFFSET 0.000000 0.000000 0.000000
							}
						}
						JOINT mixamorig:Bow_Right
						{
							OFFSET -11.133100 30.313980 19.500957
							CHANNELS 3 Zrotation Yrotation Xrotation
							End Site
							{
								OFFSET 0.000000 0.000000 0.000000
							}
						}
						JOINT mixamorig:HairC
						{
							OFFSET 2.525900 31.959274 20.608562
							CHANNELS 3 Zrotation Yrotation Xrotation
							JOINT mixamorig:HairC1
							{
								OFFSET 1.733735 -3.232010 3.632423
								CHANNELS 3 Zrotation Yrotation Xrotation
								End Site
								{
									OFFSET 0.000000 0.000000 0.000000
								}
							}
						}
						JOINT mixamorig:Ponytail
						{
							OFFSET -0.181100 31.348724 -13.427048
							CHANNELS 3 Zrotation Yrotation Xrotation
							JOINT mixamorig:Ponytail1
							{
								OFFSET -0.746532 2.567368 -7.327436
								CHANNELS 3 Zrotation Yrotation Xrotation
								JOINT mixamorig:Ponytail2
								{
									OFFSET -0.357839 -10.803711 -7.221615
									CHANNELS 3 Zrotation Yrotation Xrotation
									End Site
									{
										OFFSET 0.000000 0.000000 0.000000
									}
								}
							}
						}
					}
				}
				JOINT mixamorig:LeftShoulder
				{
					OFFSET 4.215800 16.566912 -4.092372
					CHANNELS 3 Zrotation Yrotation Xrotation
					JOINT mixamorig:LeftArm
					{
						OFFSET 8.521194 -0.267402 -1.717659
						CHANNELS 3 Zrotation Yrotation Xrotation
						JOINT mixamorig:LeftForeArm
						{
							OFFSET 21.262897 -0.000004 -0.000001
							CHANNELS 3 Zrotation Yrotation Xrotation
							JOINT mixamorig:LeftHand
							{
								OFFSET 21.154701 0.000001 -0.000001
								CHANNELS 3 Zrotation Yrotation Xrotation
								JOINT mixamorig:LeftHandThumb1
								{
									OFFSET 4.109039 -1.962593 2.610258
									CHANNELS 3 Zrotation Yrotation Xrotation
									JOINT mixamorig:LeftHandThumb2
									{
										OFFSET 3.101486 -1.790642 1.790644
										CHANNELS 3 Zrotation Yrotation Xrotation
										JOINT mixamorig:LeftHandThumb3
										{
											OFFSET 3.038742 -1.754417 1.754420
											CHANNELS 3 Zrotation Yrotation Xrotation
											JOINT mixamorig:LeftHandThumb4
											{
												OFFSET 2.539978 -1.466461 1.466458
												CHANNELS 3 Zrotation Yrotation Xrotation
												End Site
												{
													OFFSET 0.000000 0.000000 0.000000
												}
											}
										}
									}
								}
								JOINT mixamorig:LeftHandIndex1
								{
									OFFSET 11.845871 -0.683540 3.729384
									CHANNELS 3 Zrotation Yrotation Xrotation
									JOINT mixamorig:LeftHandIndex2
									{
										OFFSET 3.283096 0.000000 -0.000000
										CHANNELS 3 Zrotation Yrotation Xrotation
										JOINT mixamorig:LeftHandIndex3
										{
											OFFSET 3.323807 0.000000 -0.000000
											CHANNELS 3 Zrotation Yrotation Xrotation
											JOINT mixamorig:LeftHandIndex4
											{
												OFFSET 3.020599 0.000000 -0.000000
												CHANNELS 3 Zrotation Yrotation Xrotation
												End Site
												{
													OFFSET 0.000000 0.000000 0.000000
												}
											}
										}
									}
								}
								JOINT mixamorig:LeftHandMiddle1
								{
									OFFSET 12.082413 0.000000 -0.000000
									CHANNELS 3 Zrotation Yrotation Xrotation
									JOINT mixamorig:LeftHandMiddle2
									{
										OFFSET 3.410500 0.000000 0.000000
										CHANNELS 3 Zrotation Yrotation Xrotation
										JOINT mixamorig:LeftHandMiddle3
										{
											OFFSET 3.312202 0.000000 0.000000
											CHANNELS 3 Zrotation Yrotation Xrotation
											JOINT mixamorig:LeftHandMiddle4
											{
												OFFSET 3.438499 0.000000 0.000000
												CHANNELS 3 Zrotation Yrotation Xrotation
												End Site
												{
													OFFSET 0.000000 0.000000 0.000000
												}
											}
										}
									}
								}
								JOINT mixamorig:LeftHandRing1
								{
									OFFSET 12.470573 0.087585 -2.973213
									CHANNELS 3 Zrotation Yrotation Xrotation
									JOINT mixamorig:LeftHandRing2
									{
										OFFSET 3.053307 0.000000 0.000000
										CHANNELS 3 Zrotation Yrotation Xrotation
										JOINT mixamorig:LeftHandRing3
										{
											OFFSET 3.295898 0.000000 0.000000
											CHANNELS 3 Zrotation Yrotation Xrotation
											JOINT mixamorig:LeftHandRing4
											{
												OFFSET 3.727997 0.000000 0.000000
												CHANNELS 3 Zrotation Yrotation Xrotation
												End Site
												{
													OFFSET 0.000000 0.000000 0.000000
												}
											}
										}
									}
								}
								JOINT mixamorig:LeftHandPinky1
								{
									OFFSET 11.691048 -0.779549 -5.760270
									CHANNELS 3 Zrotation Yrotation Xrotation
									JOINT mixamorig:LeftHandPinky2
									{
										OFFSET 2.861702 0.000000 0.000000
										CHANNELS 3 Zrotation Yrotation Xrotation
										JOINT mixamorig:LeftHandPinky3
										{
											OFFSET 2.863403 0.000000 0.000000
											CHANNELS 3 Zrotation Yrotation Xrotation
											JOINT mixamorig:LeftHandPinky4
											{
												OFFSET 2.545403 0.000000 0.000000
												CHANNELS 3 Zrotation Yrotation Xrotation
												End Site
												{
													OFFSET 0.000000 0.000000 0.000000
												}
											}
										}
									}
								}
							}
							JOINT mixamorig:LeftWristTwist
							{
								OFFSET 10.565701 0.000000 -0.000000
								CHANNELS 3 Zrotation Yrotation Xrotation
								End Site
								{
									OFFSET 0.000000 0.000000 0.000000
								}
							}
						}
						JOINT mixamorig:LeftUpArmTwist
						{
							OFFSET 10.646198 0.000000 -0.000000
							CHANNELS 3 Zrotation Yrotation Xrotation
							End Site
							{
								OFFSET 0.000000 0.000000 0.000000
							}
						}
					}
				}
				JOINT mixamorig:Right_Breast
				{
					OFFSET -2.562200 12.208893 5.100423
					CHANNELS 3 Zrotation Yrotation Xrotation
					End Site
					{
						OFFSET 0.000000 0.000000 0.000000
					}
				}
				JOINT mixamorig:Left_Breast
				{
					OFFSET 2.562200 12.208893 5.100423
					CHANNELS 3 Zrotation Yrotation Xrotation
					End Site
					{
						OFFSET 0.000000 0.000000 0.000000
					}
				}
				JOINT mixamorig:RightShoulder
				{
					OFFSET -4.215800 16.567409 -4.092372
					CHANNELS 3 Zrotation Yrotation Xrotation
					JOINT mixamorig:RightArm
					{
						OFFSET -8.521286 -0.267909 -1.717664
						CHANNELS 3 Zrotation Yrotation Xrotation
						JOINT mixamorig:RightForeArm
						{
							OFFSET -21.262793 -0.000004 0.000001
							CHANNELS 3 Zrotation Yrotation Xrotation
							JOINT mixamorig:RightHand
							{
								OFFSET -21.154800 0.000001 0.000001
								CHANNELS 3 Zrotation Yrotation Xrotation
								JOINT mixamorig:RightHandThumb1
								{
									OFFSET -4.108955 -1.962654 2.610195
									CHANNELS 3 Zrotation Yrotation Xrotation
									JOINT mixamorig:RightHandThumb2
									{
										OFFSET -3.101406 -1.790596 1.790599
										CHANNELS 3 Zrotation Yrotation Xrotation
										JOINT mixamorig:RightHandThumb3
										{
											OFFSET -3.038822 -1.754463 1.754464
											CHANNELS 3 Zrotation Yrotation Xrotation
											JOINT mixamorig:RightHandThumb4
											{
												OFFSET -2.539749 -1.466324 1.466325
												CHANNELS 3 Zrotation Yrotation Xrotation
												End Site
												{
													OFFSET 0.000000 0.000000 0.000000
												}
											}
										}
									}
								}
								JOINT mixamorig:RightHandIndex1
								{
									OFFSET -11.845840 -0.684052 3.729363
									CHANNELS 3 Zrotation Yrotation Xrotation
									JOINT mixamorig:RightHandIndex2
									{
										OFFSET -3.283096 0.000000 -0.000000
										CHANNELS 3 Zrotation Yrotation Xrotation
										JOINT mixamorig:RightHandIndex3
										{
											OFFSET -3.323807 0.000000 -0.000000
											CHANNELS 3 Zrotation Yrotation Xrotation
											JOINT mixamorig:RightHandIndex4
											{
												OFFSET -3.020599 0.000000 0.000000
												CHANNELS 3 Zrotation Yrotation Xrotation
												End Site
												{
													OFFSET 0.000000 0.000000 0.000000
												}
											}
										}
									}
								}
								JOINT mixamorig:RightHandMiddle1
								{
									OFFSET -12.082314 0.000000 0.000000
									CHANNELS 3 Zrotation Yrotation Xrotation
									JOINT mixamorig:RightHandMiddle2
									{
										OFFSET -3.410606 0.000000 0.000000
										CHANNELS 3 Zrotation Yrotation Xrotation
										JOINT mixamorig:RightHandMiddle3
										{
											OFFSET -3.312195 0.000000 0.000000
											CHANNELS 3 Zrotation Yrotation Xrotation
											JOINT mixamorig:RightHandMiddle4
											{
												OFFSET -3.438499 0.000000 0.000000
												CHANNELS 3 Zrotation Yrotation Xrotation
												End Site
												{
													OFFSET 0.000000 0.000000 0.000000
												}
											}
										}
									}
								}
								JOINT mixamorig:RightHandRing1
								{
									OFFSET -12.470573 0.087166 -2.973210
									CHANNELS 3 Zrotation Yrotation Xrotation
									JOINT mixamorig:RightHandRing2
									{
										OFFSET -3.053299 0.000000 0.000000
										CHANNELS 3 Zrotation Yrotation Xrotation
										JOINT mixamorig:RightHandRing3
										{
											OFFSET -3.295898 0.000000 0.000000
											CHANNELS 3 Zrotation Yrotation Xrotation
											JOINT mixamorig:RightHandRing4
											{
												OFFSET -3.727997 0.000000 0.000000
												CHANNELS 3 Zrotation Yrotation Xrotation
												End Site
												{
													OFFSET 0.000000 0.000000 0.000000
												}
											}
										}
									}
								}
								JOINT mixamorig:RightHandPinky1
								{
									OFFSET -11.691017 -0.779953 -5.760294
									CHANNELS 3 Zrotation Yrotation Xrotation
									JOINT mixamorig:RightHandPinky2
									{
										OFFSET -2.861603 0.000000 0.000000
										CHANNELS 3 Zrotation Yrotation Xrotation
										JOINT mixamorig:RightHandPinky3
										{
											OFFSET -2.863403 0.000000 0.000000
											CHANNELS 3 Zrotation Yrotation Xrotation
											JOINT mixamorig:RightHandPinky4
											{
												OFFSET -2.545303 0.000000 0.000000
												CHANNELS 3 Zrotation Yrotation Xrotation
												End Site
												{
													OFFSET 0.000000 0.000000 0.000000
												}
											}
										}
									}
								}
							}
							JOINT mixamorig:RightWristTwist
							{
								OFFSET -10.565701 0.000000 0.000000
								CHANNELS 3 Zrotation Yrotation Xrotation
								End Site
								{
									OFFSET 0.000000 0.000000 0.000000
								}
							}
						}
						JOINT mixamorig:RightUpArmTwist
						{
							OFFSET -10.646093 0.000000 0.000001
							CHANNELS 3 Zrotation Yrotation Xrotation
							End Site
							{
								OFFSET 0.000000 0.000000 0.000000
							}
						}
					}
				}
			}
		}
		JOINT mixamorig:Belly
		{
			OFFSET 0.000000 -0.538567 3.357786
			CHANNELS 3 Zrotation Yrotation Xrotation
			End Site
			{
				OFFSET 0.000000 0.000000 0.000000
			}
		}
	}
	JOINT mixamorig:LeftUpLeg
	{
		OFFSET 8.267015 -7.995483 -0.379100
		CHANNELS 3 Zrotation Yrotation Xrotation
		JOINT mixamorig:LeftLeg
		{
			OFFSET -0.000033 -32.369437 0.062314
			CHANNELS 3 Zrotation Yrotation Xrotation
			JOINT mixamorig:LeftFoot
			{
				OFFSET 0.000025 -35.030462 -2.208349
				CHANNELS 3 Zrotation Yrotation Xrotation
				JOINT mixamorig:LeftToeBase
				{
					OFFSET 1.232906 -9.835773 10.854839
					CHANNELS 3 Zrotation Yrotation Xrotation
					JOINT mixamorig:LeftToe_End
					{
						OFFSET 0.210410 0.001970 7.008142
						CHANNELS 3 Zrotation Yrotation Xrotation
						End Site
						{
							OFFSET 0.000000 0.000000 0.000000
						}
					}
				}
			}
		}
	}
	JOINT mixamorig:RightUpLeg
	{
		OFFSET -8.266986 -7.995511 -0.379100
		CHANNELS 3 Zrotation Yrotation Xrotation
		JOINT mixamorig:RightLeg
		{
			OFFSET 0.000000 -32.369437 0.062314
			CHANNELS 3 Zrotation Yrotation Xrotation
			JOINT mixamorig:RightFoot
			{
				OFFSET 0.000002 -35.030464 -2.208349
				CHANNELS 3 Zrotation Yrotation Xrotation
				JOINT mixamorig:RightToeBase
				{
					OFFSET -1.232897 -9.835700 10.854908
					CHANNELS 3 Zrotation Yrotation Xrotation
					JOINT mixamorig:RightToe_End
					{
						OFFSET -0.214257 0.001952 7.007725
						CHANNELS 3 Zrotation Yrotation Xrotation
						End Site
						{
							OFFSET 0.000000 0.000000 0.000000
						}
					}
				}
			}
		}
	}
	JOINT mixamorig:SkirtA
	{
		OFFSET 11.243096 1.931320 -10.868500
		CHANNELS 3 Zrotation Yrotation Xrotation
		JOINT mixamorig:SkirtA1
		{
			OFFSET 2.094878 -7.760521 -3.754759
			CHANNELS 3 Zrotation Yrotation Xrotation
			End Site
			{
				OFFSET 0.000000 0.000000 0.000000
			}
		}
	}
	JOINT mixamorig:SkirtB
	{
		OFFSET -0.000008 4.335800 -15.692000
		CHANNELS 3 Zrotation Yrotation Xrotation
		JOINT mixamorig:SkirtB1
		{
			OFFSET 0.000000 -9.729668 -3.399943
			CHANNELS 3 Zrotation Yrotation Xrotation
			End Site
			{
				OFFSET 0.000000 0.000000 0.000000
			}
		}
	}
	JOINT mixamorig:SkirtC
	{
		OFFSET -11.243104 1.931381 -10.868500
		CHANNELS 3 Zrotation Yrotation Xrotation
		JOINT mixamorig:SkirtC1
		{
			OFFSET -1.996108 -7.801628 -3.723248
			CHANNELS 3 Zrotation Yrotation Xrotation
			End Site
			{
				OFFSET 0.000000 0.000000 0.000000
			}
		}
	}
}
MOTION
Frames: 4
Frame Time: 0.016667
-37.807301 81.152534 -73.624969 -2.258492 41.484371 -5.202120 9.367366 6.667597 14.969341 2.212300 2.318153 3.036404 2.152454 2.283946 3.057258 0.183942 -2.764414 3.809692 11.513024 -30.997599 -19.663556 0.000000 0.000000 0.000000 0.000002 0.000001 0.000000 0.000000 -0.000003 -0.000002 0.000008 -0.000004 -0.000003 -0.000003 0.000002 0.000001 -0.000002 -0.000003 -0.000003 -0.000000 -0.000002 0.000001 -0.000001 -0.000001 -0.000001 -0.000001 -0.000002 -0.000001 -0.000001 -0.000001 0.000006 -18.141285 -7.111823 3.951071 -63.817312 -4.698728 -3.407111 -0.009691 -24.803982 0.000284 2.249394 2.889172 4.081205 6.429199 4.893275 4.893868 9.924170 6.672672 16.419783 13.822144 -6.150893 -16.451065 0.000001 -0.000001 -0.000000 -32.867429 -0.338079 -0.687594 -27.043576 2.667660 -0.641622 -8.143222 0.831605 -0.059208 0.000003 -0.000002 -0.000000 -47.332711 4.313199 -3.573855 -26.944102 2.658594 -0.637011 -19.640289 1.972713 -0.341488 -0.000001 -0.000000 -0.000001 -55.140014 7.575100 -4.401790 -35.418766 3.398823 -1.085595 -29.413574 2.881125 -0.756365 0.000000 -0.000001 0.000000 -62.657363 4.144573 -5.387356 -32.998693 3.194419 -0.946416 -36.508505 3.488891 -1.151069 -0.000002 -0.000002 0.000000 0.000003 -0.000002 0.000003 0.000000 0.000000 -0.000001 0.000001 -0.000002 0.000001 0.000001 -0.000002 0.000001 23.274728 19.495856 6.721489 37.314823 19.172707 -4.736284 -0.002675 20.591117 -0.000741 -7.422339 19.552157 -1.437833 1.659149 -1.630433 -1.242640 -12.036057 -19.343882 19.701834 -12.720677 -9.168268 -12.858124 0.000002 0.000006 0.000003 34.080086 -0.956650 0.001044 53.463210 -3.744838 -1.886556 33.921837 -2.602927 -0.793967 0.000000 0.000000 0.000002 43.761076 -2.228696 -2.833231 54.312175 -3.785411 -1.942296 41.855447 -3.111293 -1.190067 0.000000 -0.000001 0.000000 49.099179 -1.431409 -3.295809 38.502227 -2.903210 -1.014094 51.324035 -3.638959 -1.748781 -0.000001 0.000001 -0.000001 43.077652 -1.147046 -3.525962 52.113223 -3.678614 -1.799156 40.836878 -3.049199 -1.135339 -0.000001 -0.000001 0.000002 -0.000001 0.000000 0.000000 0.000000 0.000000 -0.000001 0.000000 -0.000002 -0.000001 4.043839 5.752160 -36.065312 6.568655 4.883644 49.742567 -6.069442 9.723969 -10.155162 -0.000007 -0.000006 -4.657158 0.000000 0.000001 0.000000 0.814935 -9.653256 -24.961651 0.112530 -11.102867 24.636298 -5.728663 -6.511424 3.913143 0.000001 -0.000003 -2.170568 0.000000 0.000000 0.000000 0.000000 -0.000003 -0.000005 0.000000 0.000004 0.000001 0.000002 -0.000001 -0.000002 0.000001 -0.000002 -0.000002 0.000000 -0.000005 0.000000 0.000001 0.000002 0.000002 
-38.302254 81.070419 -74.535843 -2.346577 41.275282 -5.368107 9.541995 6.937829 14.885156 2.240533 2.395048 3.022721 2.177962 2.360593 3.044524 0.267377 -2.769986 3.774187 11.936928 -31.192897 -19.672737 0.000000 0.000000 0.000001 -0.000003 0.000000 0.000001 -0.000002 -0.000001 0.000000 0.000004 -0.000003 -0.000003 -0.000005 0.000002 0.000005 -0.000001 0.000000 0.000001 0.000002 -0.000001 0.000004 -0.000001 0.000000 0.000003 0.000001 0.000001 0.000001 0.000000 0.000000 0.000003 -18.117609 -7.049632 4.157970 -63.896280 -2.501162 -6.391981 -0.007990 -21.937649 -0.000065 2.971293 6.388536 1.077686 6.429202 4.893278 4.893874 9.924170 6.672673 16.419782 13.806212 -5.050434 -16.002422 -0.000001 0.000006 -0.000001 -34.226944 -0.182879 -0.692448 -28.202812 2.772650 -0.696654 -9.051076 0.923599 -0.073091 -0.000001 -0.000002 0.000000 -48.867059 4.388265 -3.733731 -28.310533 2.782364 -0.701860 -20.798131 2.083916 -0.382470 -0.000001 -0.000002 0.000000 -56.806141 7.599129 -4.582389 -36.949896 3.524991 -1.178063 -30.779298 3.001882 -0.826445 0.000000 -0.000001 -0.000001 -64.388369 4.178443 -5.568074 -34.649966 3.334529 -1.040459 -38.038584 3.613166 -1.245836 0.000002 -0.000000 0.000001 0.000000 0.000001 0.000002 -0.000001 -0.000000 -0.000001 0.000000 0.000002 0.000000 0.000000 0.000002 0.000000 23.160179 19.655028 6.751251 36.666377 20.536508 -4.650534 -0.002652 21.816982 -0.000812 -7.009985 19.976456 -1.396077 1.044236 -1.750229 -1.172663 -12.036058 -19.343876 19.701837 -12.711284 -8.109365 -13.271166 0.000000 -0.000001 0.000000 32.471678 -0.835558 0.015932 51.849537 -3.665416 -1.782263 32.311740 -2.493290 -0.722387 -0.000000 -0.000001 0.000004 41.977927 -2.146607 -2.681564 52.694616 -3.707397 -1.836593 40.497390 -3.028275 -1.117340 -0.000001 0.000000 0.000003 47.170295 -1.350517 -3.126412 36.708599 -2.787766 -0.925058 49.712079 -3.555763 -1.647618 0.000001 0.000000 -0.000005 40.942404 -1.069542 -3.402522 50.221224 -3.582348 -1.679346 39.051122 -2.937964 -1.042058 -0.000001 -0.000000 -0.000002 0.000000 -0.000001 0.000000 -0.000001 0.000001 0.000001 0.000001 0.000000 -0.000001 4.816856 6.033024 -34.714171 6.510220 4.677666 50.580533 -5.917861 9.983631 -10.449391 -0.000007 0.000007 -4.650841 0.000000 -0.000002 0.000000 0.858811 -9.585739 -25.004553 0.393887 -11.100029 23.248326 -6.150501 -6.348615 5.418339 0.000000 0.000000 -2.176593 0.000000 0.000000 0.000000 -0.000003 -0.000003 -0.000004 -0.000001 0.000001 -0.000000 0.000001 -0.000001 -0.000002 0.000000 -0.000004 -0.000002 -0.000000 -0.000003 0.000001 -0.000002 -0.000004 0.000000 
-38.816826 80.996147 -75.478439 -2.424474 41.175194 -5.412704 9.631748 7.104733 14.750696 2.266499 2.439051 2.992143 2.203750 2.403826 3.014400 0.355464 -2.753975 3.714942 12.495319 -31.225927 -19.792787 0.000000 0.000000 -0.000002 -0.000000 0.000001 -0.000002 0.000000 -0.000003 -0.000005 0.000005 -0.000004 -0.000001 -0.000000 -0.000003 0.000001 -0.000002 -0.000001 -0.000002 0.000001 -0.000002 0.000002 -0.000001 -0.000002 -0.000001 -0.000002 0.000001 0.000001 0.000001 0.000000 -0.000001 -17.907916 -7.201036 4.303728 -63.927154 0.031268 -8.806576 -0.007164 -21.199569 -0.000195 2.854809 11.490902 -1.341102 6.429195 4.893273 4.893867 9.924171 6.672678 16.419783 13.799511 -3.935004 -15.551514 0.000001 -0.000000 0.000002 -35.673428 -0.021064 -0.699824 -29.470832 2.886201 -0.759243 -10.088942 1.028449 -0.090780 0.000002 0.000001 0.000003 -50.467146 4.461967 -3.902035 -29.764137 2.912284 -0.774082 -22.064516 2.204533 -0.429855 0.000000 -0.000001 0.000000 -58.516292 7.618365 -4.768864 -38.546739 3.653879 -1.278038 -32.232165 3.128456 -0.904138 -0.000000 -0.000002 0.000002 -66.141358 4.206835 -5.751501 -36.345260 3.475480 -1.141151 -39.634297 3.740022 -1.348175 -0.000001 -0.000002 0.000001 0.000001 0.000000 -0.000001 -0.000000 0.000001 -0.000002 0.000000 0.000002 0.000000 0.000000 0.000002 0.000000 23.083288 19.593546 6.716888 35.970142 22.093672 -4.350369 -0.002560 23.061665 -0.000536 -6.303800 20.339510 -1.269727 0.391259 -1.878308 -1.092731 -12.036058 -19.343880 19.701836 -12.709445 -6.987983 -13.711482 0.000004 0.000002 -0.000001 30.766623 -0.703306 0.029348 50.138797 -3.578071 -1.674190 30.604749 -2.374892 -0.649891 0.000000 0.000000 -0.000002 40.136889 -2.056944 -2.526985 50.979733 -3.621405 -1.726992 39.003440 -2.934969 -1.039627 0.000000 0.000000 -0.000004 45.221882 -1.263026 -2.957090 34.856761 -2.665655 -0.836950 48.003133 -3.464526 -1.542990 0.000000 0.000000 0.000003 38.829299 -0.986229 -3.283224 48.310091 -3.481151 -1.561580 37.207428 -2.820137 -0.949460 0.000000 0.000000 0.000000 -0.000001 0.000001 0.000001 -0.000001 -0.000000 -0.000001 0.000000 0.000003 0.000000 5.521379 6.287446 -33.315111 6.501842 4.602555 50.952847 -5.735471 10.092455 -10.574886 -0.000001 0.000001 -4.720752 0.000000 -0.000001 0.000000 0.881429 -9.513480 -25.029606 0.747586 -11.090421 21.512162 -6.612859 -6.276299 7.136219 0.000002 0.000002 -2.181486 0.000000 0.000001 0.000000 0.000000 -0.000003 -0.000001 0.000001 -0.000001 0.000001 -0.000001 -0.000002 0.000000 0.000000 -0.000002 0.000000 0.000002 -0.000003 -0.000000 0.000001 -0.000003 -0.000003 
-39.355286 80.932159 -76.466797 -2.479548 41.181320 -5.408795 9.604118 7.122650 14.574999 2.287579 2.435583 2.951929 2.225996 2.398841 2.974312 0.447966 -2.719563 3.668702 13.095283 -31.056599 -19.987136 -0.000001 0.000000 0.000000 0.000002 0.000000 -0.000002 -0.000001 -0.000003 -0.000002 0.000004 -0.000003 -0.000005 0.000000 0.000002 0.000003 -0.000002 -0.000001 0.000000 -0.000002 -0.000000 -0.000002 -0.000001 -0.000001 -0.000001 0.000004 0.000001 -0.000001 -0.000000 -0.000001 0.000006 -17.562704 -7.501640 4.394545 -63.812511 2.972501 -10.386363 -0.006487 -21.140053 -0.000328 1.483739 16.220474 -3.049425 6.429201 4.893272 4.893869 9.924165 6.672675 16.419777 13.802275 -2.811543 -15.100862 -0.000003 0.000001 0.000003 -37.196135 0.145496 -0.709938 -30.836825 3.006947 -0.829474 -11.246009 1.144912 -0.112729 -0.000003 0.000003 -0.000000 -52.122128 4.533244 -4.077691 -31.294154 3.046970 -0.853608 -23.428691 2.333259 -0.483867 0.000000 -0.000004 0.000000 -60.259530 7.632271 -4.959922 -40.198402 3.784171 -1.385188 -33.761417 3.259478 -0.989347 -0.000002 -0.000000 -0.000001 -67.905395 4.229446 -5.936280 -38.073664 3.616001 -1.248060 -41.284846 3.868141 -1.457689 -0.000001 -0.000002 -0.000001 -0.000002 0.000000 0.000001 0.000000 0.000002 0.000001 -0.000001 0.000000 0.000002 -0.000001 0.000000 0.000002 23.077012 19.322959 6.628261 35.257025 23.837161 -3.826621 -0.002473 24.316031 0.000181 -5.294707 20.654505 -1.040548 -0.292479 -2.013251 -1.002823 -12.036056 -19.343877 19.701835 -12.716441 -5.817224 -14.174767 -0.000003 -0.000002 0.000001 28.984375 -0.560916 0.040668 48.350496 -3.483327 -1.564049 28.820338 -2.248849 -0.577908 0.000002 0.000000 0.000000 38.257385 -1.960283 -2.371399 49.187085 -3.528084 -1.615202 37.393131 -2.832155 -0.958608 0.000000 0.000000 -0.000003 43.273871 -1.169819 -2.789739 32.966226 -2.538100 -0.751125 46.216728 -3.365847 -1.436566 0.000000 0.000000 -0.000001 36.760135 -0.898401 -3.169311 46.399404 -3.376092 -1.447297 35.325232 -2.696801 -0.858848 0.000000 0.000000 0.000001 0.000000 0.000000 0.000000 0.000002 0.000001 0.000000 0.000001 -0.000006 -0.000000 6.152224 6.523188 -31.816248 6.597650 4.691095 50.898110 -5.425642 10.015367 -10.602875 -0.000002 -0.000008 -4.999214 0.000000 -0.000003 0.000000 0.846045 -9.421879 -24.900827 1.199615 -11.067121 19.306049 -7.134779 -6.298025 9.139306 0.000002 0.000004 -2.185141 0.000000 0.000000 0.000000 -0.000001 -0.000000 -0.000003 0.000001 0.000001 0.000003 0.000000 0.000000 0.000000 -0.000000 -0.000003 0.000002 0.000002 0.000002 0.000000 0.000000 0.000000 0.000000 
